<svg id="Capa_1" enable-background="new 0 0 512 512" height="512" viewBox="0 0 512 512" width="512" xmlns="http://www.w3.org/2000/svg" fill="#237564" ><g><path d="m256 90c-91.53 0-166 74.47-166 166s74.47 166 166 166 166-74.47 166-166-74.47-166-166-166zm-15 44.88c0-8.29 6.72-15 15-15s15 6.71 15 15v21.62c0 8.28-6.72 15-15 15s-15-6.72-15-15zm-84.5 136.12h-21.62c-8.29 0-15-6.72-15-15s6.71-15 15-15h21.62c8.28 0 15 6.72 15 15s-6.72 15-15 15zm43.87-66.9c5.65-6.06 15.14-6.39 21.2-.74l34.6 32.29 75.29-67.88c6.15-5.55 15.63-5.06 21.18 1.09 5.55 6.16 5.06 15.64-1.09 21.19l-85.5 77.09c-5.737 5.175-14.537 5.174-20.28-.17l-44.67-41.67c-6.06-5.65-6.39-15.14-.73-21.2zm70.63 173.02c0 8.29-6.72 15-15 15s-15-6.71-15-15v-21.62c0-8.28 6.72-15 15-15s15 6.72 15 15zm106.12-106.12h-21.62c-8.28 0-15-6.72-15-15s6.72-15 15-15h21.62c8.29 0 15 6.72 15 15s-6.71 15-15 15z"/><path d="m437.02 74.98c-48.35-48.35-112.64-74.98-181.02-74.98s-132.67 26.63-181.02 74.98-74.98 112.64-74.98 181.02 26.63 132.67 74.98 181.02 112.64 74.98 181.02 74.98 132.67-26.63 181.02-74.98 74.98-112.64 74.98-181.02-26.63-132.67-74.98-181.02zm-181.02 377.02c-108.08 0-196-87.93-196-196s87.92-196 196-196 196 87.93 196 196-87.92 196-196 196z"/></g></svg>