<svg id="Layer_1" enable-background="new 0 0 510.49 510.49" fill="#237564" height="512" viewBox="0 0 510.49 510.49" width="512" xmlns="http://www.w3.org/2000/svg"><g><path d="m159.868 252.59c21.002-15.92 46.111-24.335 72.613-24.335h42.22c26.502 0 51.611 8.415 72.613 24.335 16.32 12.372 29.284 28.943 37.476 47.617 29.542-31.909 47.63-74.568 47.63-121.379 0-98.606-80.222-178.828-178.829-178.828s-178.829 80.222-178.829 178.828c0 46.811 18.088 89.47 47.63 121.379 8.192-18.674 21.157-35.246 37.476-47.617zm93.723-177.569c42.246 0 76.616 34.369 76.616 76.615s-34.37 76.616-76.616 76.616-76.616-34.37-76.616-76.616 34.37-76.615 76.616-76.615z"/><path d="m253.591 198.253c25.704 0 46.616-20.912 46.616-46.616s-20.912-46.615-46.616-46.615-46.616 20.911-46.616 46.615 20.912 46.616 46.616 46.616z"/><path d="m274.701 258.255h-42.22c-39.417 0-74.69 26.089-86.165 63.563 29.905 22.492 67.059 35.839 107.275 35.839 40.215 0 77.37-13.347 107.275-35.839-11.475-37.474-46.749-63.563-86.165-63.563z"/><g><path d="m118.45 510.49-38.949-20.421-38.949 20.421 7.384-43.353-31.457-30.733 43.513-6.374 19.509-39.413 19.508 39.413 43.512 6.374-31.456 30.733z"/></g><g><path d="m294.195 510.49-38.949-20.421-38.949 20.421 7.384-43.353-31.457-30.733 43.514-6.374 19.508-39.413 19.508 39.413 43.512 6.374-31.456 30.733z"/></g><g><path d="m469.94 510.49-38.949-20.421-38.949 20.421 7.385-43.353-31.458-30.733 43.514-6.374 19.508-39.413 19.508 39.413 43.512 6.374-31.456 30.733z"/></g></g></svg>